<svg xmlns="http://www.w3.org/2000/svg" width="40" height="40" viewBox="0 0 40 40" fill="none"><rect x="4.75" y="8.5" width="23" height="14.25" rx="3" stroke="#222C47" stroke-width="2"></rect><rect x="13.5" y="17.25" width="23" height="14.25" rx="3" fill="#F4F4F6" stroke="#222C47" stroke-width="2"></rect><path d="M33.3482 36.0258L29.5462 32.7584C28.8425 32.1537 29.2702 31 30.1979 31H34C34.5523 31 35 31.4477 35 32V35.2674C35 36.1224 33.9966 36.5831 33.3482 36.0258Z" fill="#222C47"></path><path d="M6.65177 27.2758L10.4538 24.0084C11.1575 23.4037 10.7298 22.25 9.80207 22.25H6C5.44772 22.25 5 22.6977 5 23.25V26.5174C5 27.3724 6.00335 27.8331 6.65177 27.2758Z" fill="#222C47"></path><rect x="8" y="12.5" width="13.75" height="2" rx="1" fill="#222C47"></rect><rect x="8" y="16.25" width="3.75" height="2" rx="1" fill="#222C47"></rect><rect x="17" y="21.25" width="13.75" height="2" rx="1" fill="#222C47"></rect><rect x="17" y="25" width="11.2" height="2" rx="1" fill="#222C47"></rect></svg>