<svg xmlns="http://www.w3.org/2000/svg" width="40" height="40" viewBox="0 0 40 40" fill="none"><circle cx="12.501" cy="16.25" r="5.25" fill="#F4F4F6" stroke="#222C47" stroke-width="2"></circle><rect x="5.62598" y="9.375" width="13.75" height="13.75" rx="6.875" stroke="#F4F4F6" stroke-width="1.25"></rect><path d="M3.50098 29.75C3.50098 26.9886 5.73955 24.75 8.50098 24.75H16.501C19.2624 24.75 21.501 26.9886 21.501 29.75C21.501 31.4069 20.1578 32.75 18.501 32.75H6.50098C4.84412 32.75 3.50098 31.4069 3.50098 29.75Z" fill="#F4F4F6" stroke="#222C47" stroke-width="2"></path><path d="M8.50098 23.125C4.84209 23.125 1.87598 26.0911 1.87598 29.75C1.87598 32.3043 3.94666 34.375 6.50098 34.375H18.501C21.0553 34.375 23.126 32.3043 23.126 29.75C23.126 26.0911 20.1599 23.125 16.501 23.125H8.50098Z" stroke="#F4F4F6" stroke-width="1.25"></path><circle cx="27.501" cy="12.5" r="5.25" fill="#F4F4F6" stroke="#222C47" stroke-width="2"></circle><rect x="20.751" y="5.75" width="13.5" height="13.5" rx="6.75" stroke="#F4F4F6"></rect><path d="M18.501 26C18.501 23.2386 20.7396 21 23.501 21H31.501C34.2624 21 36.501 23.2386 36.501 26C36.501 27.6569 35.1578 29 33.501 29H21.501C19.8441 29 18.501 27.6569 18.501 26Z" fill="#F4F4F6" stroke="#222C47" stroke-width="2"></path><path d="M23.501 19.5C19.9111 19.5 17.001 22.4101 17.001 26C17.001 28.4853 19.0157 30.5 21.501 30.5H33.501C35.9863 30.5 38.001 28.4853 38.001 26C38.001 22.4101 35.0908 19.5 31.501 19.5H23.501Z" stroke="#F4F4F6"></path></svg>