<svg xmlns="http://www.w3.org/2000/svg" width="40" height="40" viewBox="0 0 40 40" fill="none"><path d="M6 6.5C6 4.84315 7.34315 3.5 9 3.5H31C32.6569 3.5 34 4.84315 34 6.5V22.5C34 30.232 27.732 36.5 20 36.5C12.268 36.5 6 30.232 6 22.5V6.5Z" fill="#F4F4F6" stroke="#222C47" stroke-width="2"></path><path d="M16.9294 8.00623C17.109 7.45344 17.891 7.45344 18.0706 8.00623L19.0491 11.0178C19.1295 11.265 19.3598 11.4324 19.6198 11.4324H22.7863C23.3675 11.4324 23.6092 12.1761 23.139 12.5178L20.5772 14.379C20.3669 14.5318 20.2789 14.8026 20.3592 15.0498L21.3378 18.0614C21.5174 18.6142 20.8847 19.0739 20.4145 18.7322L17.8527 16.871C17.6424 16.7182 17.3576 16.7182 17.1473 16.871L14.5855 18.7322C14.1153 19.0739 13.4826 18.6142 13.6622 18.0614L14.6408 15.0498C14.7211 14.8026 14.6331 14.5318 14.4228 14.379L11.861 12.5178C11.3908 12.1761 11.6325 11.4324 12.2137 11.4324H15.3802C15.6402 11.4324 15.8705 11.265 15.9509 11.0178L16.9294 8.00623Z" fill="#222C47"></path><rect x="33.2314" y="10.625" width="2.5" height="30.8004" transform="rotate(45 33.2314 10.625)" fill="#222C47"></rect><rect x="32.623" y="18.7329" width="2.5" height="22.8696" transform="rotate(45 32.623 18.7329)" fill="#222C47"></rect></svg>