<svg xmlns="http://www.w3.org/2000/svg" width="40" height="40" viewBox="0 0 40 40" fill="none"><circle cx="20" cy="8.75" r="5.25" fill="#F4F4F6" stroke="#222C47" stroke-width="2"></circle><path d="M11 22.25C11 19.4886 13.2386 17.25 16 17.25H24C26.7614 17.25 29 19.4886 29 22.25C29 23.9069 27.6569 25.25 26 25.25H14C12.3431 25.25 11 23.9069 11 22.25Z" fill="#F4F4F6" stroke="#222C47" stroke-width="2"></path><path d="M7.55437 30.5062C7.73398 29.9534 8.51602 29.9534 8.69563 30.5062L9.25318 32.2222C9.33351 32.4694 9.56388 32.6368 9.82382 32.6368H11.6281C12.2093 32.6368 12.451 33.3805 11.9808 33.7222L10.5211 34.7827C10.3108 34.9355 10.2228 35.2063 10.3031 35.4535L10.8607 37.1695C11.0403 37.7223 10.4076 38.182 9.93735 37.8403L8.47767 36.7798C8.26738 36.627 7.98262 36.627 7.77233 36.7798L6.31265 37.8403C5.84242 38.182 5.20973 37.7223 5.38934 37.1695L5.94689 35.4535C6.02722 35.2063 5.93922 34.9355 5.72893 34.7827L4.26925 33.7222C3.79902 33.3805 4.04068 32.6368 4.62192 32.6368H6.42618C6.68612 32.6368 6.91649 32.4694 6.99682 32.2222L7.55437 30.5062Z" fill="#222C47"></path><path d="M31.3044 30.5062C31.484 29.9534 32.266 29.9534 32.4456 30.5062L33.0032 32.2222C33.0835 32.4694 33.3139 32.6368 33.5738 32.6368H35.3781C35.9593 32.6368 36.201 33.3805 35.7308 33.7222L34.2711 34.7827C34.0608 34.9355 33.9728 35.2063 34.0531 35.4535L34.6107 37.1695C34.7903 37.7223 34.1576 38.182 33.6874 37.8403L32.2277 36.7798C32.0174 36.627 31.7326 36.627 31.5223 36.7798L30.0626 37.8403C29.5924 38.182 28.9597 37.7223 29.1393 37.1695L29.6969 35.4535C29.7772 35.2063 29.6892 34.9355 29.4789 34.7827L28.0192 33.7222C27.549 33.3805 27.7907 32.6368 28.3719 32.6368H30.1762C30.4361 32.6368 30.6665 32.4694 30.7468 32.2222L31.3044 30.5062Z" fill="#222C47"></path><path d="M19.4294 30.5062C19.609 29.9534 20.391 29.9534 20.5706 30.5062L21.1282 32.2222C21.2085 32.4694 21.4389 32.6368 21.6988 32.6368H23.5031C24.0843 32.6368 24.326 33.3805 23.8558 33.7222L22.3961 34.7827C22.1858 34.9355 22.0978 35.2063 22.1781 35.4535L22.7357 37.1695C22.9153 37.7223 22.2826 38.182 21.8124 37.8403L20.3527 36.7798C20.1424 36.627 19.8576 36.627 19.6473 36.7798L18.1876 37.8403C17.7174 38.182 17.0847 37.7223 17.2643 37.1695L17.8219 35.4535C17.9022 35.2063 17.8142 34.9355 17.6039 34.7827L16.1442 33.7222C15.674 33.3805 15.9157 32.6368 16.4969 32.6368H18.3012C18.5611 32.6368 18.7915 32.4694 18.8718 32.2222L19.4294 30.5062Z" fill="#222C47"></path></svg>