<svg xmlns="http://www.w3.org/2000/svg" width="40" height="40" viewBox="0 0 40 40" fill="none"><g clip-path="url(#clip0_529_18472)"><rect x="0.164214" y="29.5449" width="25.5" height="9.25" rx="4.625" transform="rotate(-45 0.164214 29.5449)" fill="#F4F4F6" stroke="#222C47" stroke-width="2"></rect><rect x="15.1896" y="21.5894" width="25.5" height="9.25" rx="4.625" transform="rotate(-45 15.1896 21.5894)" fill="#F4F4F6" stroke="#222C47" stroke-width="2"></rect><rect x="0.164214" y="29.5449" width="25.5" height="9.25" rx="4.625" transform="rotate(-45 0.164214 29.5449)" stroke="#222C47" stroke-width="2"></rect><path fill-rule="evenodd" clip-rule="evenodd" d="M18.7632 19.5061C17.7676 20.9206 17.9023 22.8878 19.1672 24.1528C20.4322 25.4177 22.3994 25.5524 23.8138 24.5567L25.2417 25.9846C23.0332 27.7535 19.8003 27.6143 17.753 25.567C15.7057 23.5197 15.5665 20.2868 17.3353 18.0782L18.7632 19.5061Z" fill="#222C47"></path><path d="M28.1246 28.4375C29.049 29.9752 30.3365 31.2629 31.8742 32.1875C30.3365 33.1121 29.049 34.3998 28.1246 35.9375C27.2002 34.3998 25.9127 33.1121 24.375 32.1875C25.9127 31.2629 27.2002 29.9752 28.1246 28.4375Z" fill="#222C47"></path><path d="M5.62458 2.1875C6.54899 3.72525 7.8365 5.01294 9.37416 5.9375C7.8365 6.86206 6.54899 8.14975 5.62458 9.6875C4.70017 8.14975 3.41265 6.86206 1.875 5.9375C3.41265 5.01294 4.70017 3.72525 5.62458 2.1875Z" fill="#222C47"></path><path d="M33.7508 28.4375C34.213 29.2064 34.8567 29.8502 35.6256 30.3125C34.8567 30.7748 34.213 31.4186 33.7508 32.1875C33.2886 31.4186 32.6448 30.7748 31.876 30.3125C32.6448 29.8502 33.2886 29.2064 33.7508 28.4375Z" fill="#222C47"></path><path d="M11.2508 2.1875C11.713 2.95637 12.3567 3.60022 13.1256 4.0625C12.3567 4.52478 11.713 5.16863 11.2508 5.9375C10.7886 5.16863 10.1448 4.52478 9.37598 4.0625C10.1448 3.60022 10.7886 2.95637 11.2508 2.1875Z" fill="#222C47"></path><path d="M31.8748 34.0625C32.337 34.8314 32.9808 35.4752 33.7496 35.9375C32.9808 36.3998 32.337 37.0436 31.8748 37.8125C31.4126 37.0436 30.7688 36.3998 30 35.9375C30.7688 35.4752 31.4126 34.8314 31.8748 34.0625Z" fill="#222C47"></path><path d="M9.37479 7.8125C9.83699 8.58137 10.4808 9.22522 11.2496 9.6875C10.4808 10.1498 9.83699 10.7936 9.37479 11.5625C8.91258 10.7936 8.26883 10.1498 7.5 9.6875C8.26883 9.22522 8.91258 8.58137 9.37479 7.8125Z" fill="#222C47"></path></g><defs><clipPath id="clip0_529_18472"><rect width="40" height="40" fill="white"></rect></clipPath></defs></svg>